<svg id="visual" viewBox="0 0 1500 540" width="1500" height="540" xmlns="http://www.w3.org/2000/svg" xmlns:xlink="http://www.w3.org/1999/xlink" version="1.1"><path d="M0 391L25 396.3C50 401.7 100 412.3 150 406.3C200 400.3 250 377.7 300 372C350 366.3 400 377.7 450 380.2C500 382.7 550 376.3 600 370.5C650 364.7 700 359.3 750 358.7C800 358 850 362 900 366.3C950 370.7 1000 375.3 1050 378.7C1100 382 1150 384 1200 390.2C1250 396.3 1300 406.7 1350 402C1400 397.3 1450 377.7 1475 367.8L1500 358L1500 541L1475 541C1450 541 1400 541 1350 541C1300 541 1250 541 1200 541C1150 541 1100 541 1050 541C1000 541 950 541 900 541C850 541 800 541 750 541C700 541 650 541 600 541C550 541 500 541 450 541C400 541 350 541 300 541C250 541 200 541 150 541C100 541 50 541 25 541L0 541Z" fill="#ededed"></path><path d="M0 397L25 408.7C50 420.3 100 443.7 150 452.2C200 460.7 250 454.3 300 454.5C350 454.7 400 461.3 450 458.3C500 455.3 550 442.7 600 440.7C650 438.7 700 447.3 750 444.8C800 442.3 850 428.7 900 419.3C950 410 1000 405 1050 411.2C1100 417.3 1150 434.7 1200 442.3C1250 450 1300 448 1350 449C1400 450 1450 454 1475 456L1500 458L1500 541L1475 541C1450 541 1400 541 1350 541C1300 541 1250 541 1200 541C1150 541 1100 541 1050 541C1000 541 950 541 900 541C850 541 800 541 750 541C700 541 650 541 600 541C550 541 500 541 450 541C400 541 350 541 300 541C250 541 200 541 150 541C100 541 50 541 25 541L0 541Z" fill="#e0e0e0"></path><path d="M0 448L25 449.5C50 451 100 454 150 457.3C200 460.7 250 464.3 300 460.3C350 456.3 400 444.7 450 446.7C500 448.7 550 464.3 600 474.2C650 484 700 488 750 481.2C800 474.3 850 456.7 900 448.8C950 441 1000 443 1050 445.8C1100 448.7 1150 452.3 1200 462.2C1250 472 1300 488 1350 482.8C1400 477.7 1450 451.3 1475 438.2L1500 425L1500 541L1475 541C1450 541 1400 541 1350 541C1300 541 1250 541 1200 541C1150 541 1100 541 1050 541C1000 541 950 541 900 541C850 541 800 541 750 541C700 541 650 541 600 541C550 541 500 541 450 541C400 541 350 541 300 541C250 541 200 541 150 541C100 541 50 541 25 541L0 541Z" fill="#d2d2d2"></path><path d="M0 475L25 476.3C50 477.7 100 480.3 150 486.5C200 492.7 250 502.3 300 499.3C350 496.3 400 480.7 450 473.3C500 466 550 467 600 469.3C650 471.7 700 475.3 750 482.5C800 489.7 850 500.3 900 508.3C950 516.3 1000 521.7 1050 517.8C1100 514 1150 501 1200 498.8C1250 496.7 1300 505.3 1350 507.8C1400 510.3 1450 506.7 1475 504.8L1500 503L1500 541L1475 541C1450 541 1400 541 1350 541C1300 541 1250 541 1200 541C1150 541 1100 541 1050 541C1000 541 950 541 900 541C850 541 800 541 750 541C700 541 650 541 600 541C550 541 500 541 450 541C400 541 350 541 300 541C250 541 200 541 150 541C100 541 50 541 25 541L0 541Z" fill="#c5c5c5"></path></svg>